<mxfile host="app.diagrams.net" modified="2024-01-16T18:42:00.329Z" agent="Mozilla/5.0 (Windows NT 10.0; Win64; x64) AppleWebKit/537.36 (KHTML, like Gecko) Chrome/119.0.0.0 Safari/537.36 OPR/105.0.0.0" etag="uxzrscPIjQWZwzxFUnGq" version="22.1.19" type="google">
  <diagram name="Page-1" id="h0ghfmMoasoeHgx9zrRe">
    <mxGraphModel grid="1" page="1" gridSize="10" guides="1" tooltips="1" connect="1" arrows="1" fold="1" pageScale="1" pageWidth="850" pageHeight="1100" math="0" shadow="0">
      <root>
        <mxCell id="0" />
        <mxCell id="1" parent="0" />
        <mxCell id="7BiZqR9llb5KJTKUwhQs-10" value="" style="edgeStyle=orthogonalEdgeStyle;rounded=0;orthogonalLoop=1;jettySize=auto;html=1;" edge="1" parent="1" source="7BiZqR9llb5KJTKUwhQs-1" target="7BiZqR9llb5KJTKUwhQs-9">
          <mxGeometry relative="1" as="geometry" />
        </mxCell>
        <mxCell id="7BiZqR9llb5KJTKUwhQs-11" value="HE" style="edgeLabel;html=1;align=center;verticalAlign=middle;resizable=0;points=[];" connectable="0" vertex="1" parent="7BiZqR9llb5KJTKUwhQs-10">
          <mxGeometry x="-0.2735" y="1" relative="1" as="geometry">
            <mxPoint x="8" y="1" as="offset" />
          </mxGeometry>
        </mxCell>
        <mxCell id="7BiZqR9llb5KJTKUwhQs-1" value="Import HE" style="rounded=0;whiteSpace=wrap;html=1;" vertex="1" parent="1">
          <mxGeometry x="-50" y="340" width="120" height="60" as="geometry" />
        </mxCell>
        <mxCell id="7BiZqR9llb5KJTKUwhQs-34" style="edgeStyle=orthogonalEdgeStyle;rounded=0;orthogonalLoop=1;jettySize=auto;html=1;exitX=1;exitY=0.5;exitDx=0;exitDy=0;entryX=0.5;entryY=0;entryDx=0;entryDy=0;shape=flexArrow;" edge="1" parent="1" source="7BiZqR9llb5KJTKUwhQs-2" target="7BiZqR9llb5KJTKUwhQs-3">
          <mxGeometry relative="1" as="geometry" />
        </mxCell>
        <mxCell id="7BiZqR9llb5KJTKUwhQs-35" value="Thread" style="edgeLabel;html=1;align=center;verticalAlign=middle;resizable=0;points=[];" connectable="0" vertex="1" parent="7BiZqR9llb5KJTKUwhQs-34">
          <mxGeometry x="-0.3548" y="-5" relative="1" as="geometry">
            <mxPoint y="-5" as="offset" />
          </mxGeometry>
        </mxCell>
        <mxCell id="7BiZqR9llb5KJTKUwhQs-2" value="Import Thread" style="rounded=0;whiteSpace=wrap;html=1;" vertex="1" parent="1">
          <mxGeometry x="-50" y="220" width="120" height="60" as="geometry" />
        </mxCell>
        <mxCell id="7BiZqR9llb5KJTKUwhQs-6" style="edgeStyle=orthogonalEdgeStyle;rounded=0;orthogonalLoop=1;jettySize=auto;html=1;exitX=1;exitY=0.5;exitDx=0;exitDy=0;shape=flexArrow;entryX=0;entryY=0.5;entryDx=0;entryDy=0;" edge="1" parent="1" source="7BiZqR9llb5KJTKUwhQs-3" target="7BiZqR9llb5KJTKUwhQs-36">
          <mxGeometry relative="1" as="geometry">
            <mxPoint x="930" y="490" as="targetPoint" />
          </mxGeometry>
        </mxCell>
        <mxCell id="7BiZqR9llb5KJTKUwhQs-7" value="Stitched Cloth" style="edgeLabel;html=1;align=center;verticalAlign=middle;resizable=0;points=[];" connectable="0" vertex="1" parent="7BiZqR9llb5KJTKUwhQs-6">
          <mxGeometry x="-0.0441" y="1" relative="1" as="geometry">
            <mxPoint as="offset" />
          </mxGeometry>
        </mxCell>
        <mxCell id="7BiZqR9llb5KJTKUwhQs-3" value="Couple Solids" style="rounded=0;whiteSpace=wrap;html=1;" vertex="1" parent="1">
          <mxGeometry x="640" y="460" width="120" height="60" as="geometry" />
        </mxCell>
        <mxCell id="7BiZqR9llb5KJTKUwhQs-21" value="" style="edgeStyle=orthogonalEdgeStyle;rounded=0;orthogonalLoop=1;jettySize=auto;html=1;shape=flexArrow;" edge="1" parent="1" source="7BiZqR9llb5KJTKUwhQs-4" target="7BiZqR9llb5KJTKUwhQs-20">
          <mxGeometry relative="1" as="geometry" />
        </mxCell>
        <mxCell id="7BiZqR9llb5KJTKUwhQs-22" value="Cloth" style="edgeLabel;html=1;align=center;verticalAlign=middle;resizable=0;points=[];" connectable="0" vertex="1" parent="7BiZqR9llb5KJTKUwhQs-21">
          <mxGeometry x="-0.2036" relative="1" as="geometry">
            <mxPoint as="offset" />
          </mxGeometry>
        </mxCell>
        <mxCell id="7BiZqR9llb5KJTKUwhQs-4" value="Import Cloth" style="rounded=0;whiteSpace=wrap;html=1;" vertex="1" parent="1">
          <mxGeometry x="-50" y="460" width="120" height="60" as="geometry" />
        </mxCell>
        <mxCell id="7BiZqR9llb5KJTKUwhQs-13" value="" style="edgeStyle=orthogonalEdgeStyle;rounded=0;orthogonalLoop=1;jettySize=auto;html=1;" edge="1" parent="1" source="7BiZqR9llb5KJTKUwhQs-9" target="7BiZqR9llb5KJTKUwhQs-12">
          <mxGeometry relative="1" as="geometry" />
        </mxCell>
        <mxCell id="7BiZqR9llb5KJTKUwhQs-14" value="ME" style="edgeLabel;html=1;align=center;verticalAlign=middle;resizable=0;points=[];" connectable="0" vertex="1" parent="7BiZqR9llb5KJTKUwhQs-13">
          <mxGeometry x="-0.198" relative="1" as="geometry">
            <mxPoint as="offset" />
          </mxGeometry>
        </mxCell>
        <mxCell id="7BiZqR9llb5KJTKUwhQs-9" value="Convert HE to ME" style="rounded=0;whiteSpace=wrap;html=1;" vertex="1" parent="1">
          <mxGeometry x="130" y="340" width="120" height="60" as="geometry" />
        </mxCell>
        <mxCell id="7BiZqR9llb5KJTKUwhQs-16" value="" style="edgeStyle=orthogonalEdgeStyle;rounded=0;orthogonalLoop=1;jettySize=auto;html=1;" edge="1" parent="1" source="7BiZqR9llb5KJTKUwhQs-12" target="7BiZqR9llb5KJTKUwhQs-15">
          <mxGeometry relative="1" as="geometry" />
        </mxCell>
        <mxCell id="7BiZqR9llb5KJTKUwhQs-17" value="ME" style="edgeLabel;html=1;align=center;verticalAlign=middle;resizable=0;points=[];" connectable="0" vertex="1" parent="7BiZqR9llb5KJTKUwhQs-16">
          <mxGeometry x="-0.2956" y="2" relative="1" as="geometry">
            <mxPoint x="5" y="2" as="offset" />
          </mxGeometry>
        </mxCell>
        <mxCell id="7BiZqR9llb5KJTKUwhQs-12" value="Change ME" style="rounded=0;whiteSpace=wrap;html=1;" vertex="1" parent="1">
          <mxGeometry x="330" y="340" width="120" height="60" as="geometry" />
        </mxCell>
        <mxCell id="7BiZqR9llb5KJTKUwhQs-27" style="edgeStyle=orthogonalEdgeStyle;rounded=0;orthogonalLoop=1;jettySize=auto;html=1;exitX=0.5;exitY=1;exitDx=0;exitDy=0;entryX=0.5;entryY=0;entryDx=0;entryDy=0;" edge="1" parent="1" source="7BiZqR9llb5KJTKUwhQs-15" target="7BiZqR9llb5KJTKUwhQs-24">
          <mxGeometry relative="1" as="geometry" />
        </mxCell>
        <mxCell id="7BiZqR9llb5KJTKUwhQs-28" value="ME" style="edgeLabel;html=1;align=center;verticalAlign=middle;resizable=0;points=[];" connectable="0" vertex="1" parent="7BiZqR9llb5KJTKUwhQs-27">
          <mxGeometry x="0.056" relative="1" as="geometry">
            <mxPoint as="offset" />
          </mxGeometry>
        </mxCell>
        <mxCell id="7BiZqR9llb5KJTKUwhQs-15" value="Transfer ME" style="rounded=0;whiteSpace=wrap;html=1;" vertex="1" parent="1">
          <mxGeometry x="520" y="340" width="120" height="60" as="geometry" />
        </mxCell>
        <mxCell id="7BiZqR9llb5KJTKUwhQs-25" value="" style="edgeStyle=orthogonalEdgeStyle;rounded=0;orthogonalLoop=1;jettySize=auto;html=1;shape=flexArrow;" edge="1" parent="1" source="7BiZqR9llb5KJTKUwhQs-20" target="7BiZqR9llb5KJTKUwhQs-24">
          <mxGeometry relative="1" as="geometry" />
        </mxCell>
        <mxCell id="7BiZqR9llb5KJTKUwhQs-26" value="Cloth" style="edgeLabel;html=1;align=center;verticalAlign=middle;resizable=0;points=[];" connectable="0" vertex="1" parent="7BiZqR9llb5KJTKUwhQs-25">
          <mxGeometry x="-0.2131" y="1" relative="1" as="geometry">
            <mxPoint as="offset" />
          </mxGeometry>
        </mxCell>
        <mxCell id="7BiZqR9llb5KJTKUwhQs-20" value="Position Cloth" style="rounded=0;whiteSpace=wrap;html=1;" vertex="1" parent="1">
          <mxGeometry x="130" y="460" width="120" height="60" as="geometry" />
        </mxCell>
        <mxCell id="7BiZqR9llb5KJTKUwhQs-29" style="edgeStyle=orthogonalEdgeStyle;rounded=0;orthogonalLoop=1;jettySize=auto;html=1;exitX=1;exitY=0.25;exitDx=0;exitDy=0;entryX=0;entryY=0.25;entryDx=0;entryDy=0;" edge="1" parent="1" source="7BiZqR9llb5KJTKUwhQs-24" target="7BiZqR9llb5KJTKUwhQs-3">
          <mxGeometry relative="1" as="geometry" />
        </mxCell>
        <mxCell id="7BiZqR9llb5KJTKUwhQs-31" value="ME" style="edgeLabel;html=1;align=center;verticalAlign=middle;resizable=0;points=[];" connectable="0" vertex="1" parent="7BiZqR9llb5KJTKUwhQs-29">
          <mxGeometry x="-0.1315" y="1" relative="1" as="geometry">
            <mxPoint as="offset" />
          </mxGeometry>
        </mxCell>
        <mxCell id="7BiZqR9llb5KJTKUwhQs-24" value="Guide Cloth" style="rounded=0;whiteSpace=wrap;html=1;" vertex="1" parent="1">
          <mxGeometry x="330" y="460" width="120" height="60" as="geometry" />
        </mxCell>
        <mxCell id="7BiZqR9llb5KJTKUwhQs-30" style="edgeStyle=orthogonalEdgeStyle;rounded=0;orthogonalLoop=1;jettySize=auto;html=1;exitX=1;exitY=0.75;exitDx=0;exitDy=0;entryX=0;entryY=0.75;entryDx=0;entryDy=0;shape=flexArrow;" edge="1" parent="1" source="7BiZqR9llb5KJTKUwhQs-24" target="7BiZqR9llb5KJTKUwhQs-3">
          <mxGeometry relative="1" as="geometry" />
        </mxCell>
        <mxCell id="7BiZqR9llb5KJTKUwhQs-32" value="Cloth" style="edgeLabel;html=1;align=center;verticalAlign=middle;resizable=0;points=[];" connectable="0" vertex="1" parent="7BiZqR9llb5KJTKUwhQs-30">
          <mxGeometry x="-0.0952" y="-5" relative="1" as="geometry">
            <mxPoint x="-6" as="offset" />
          </mxGeometry>
        </mxCell>
        <mxCell id="7BiZqR9llb5KJTKUwhQs-36" value="Export Solid" style="rounded=0;whiteSpace=wrap;html=1;" vertex="1" parent="1">
          <mxGeometry x="890" y="460" width="120" height="60" as="geometry" />
        </mxCell>
      </root>
    </mxGraphModel>
  </diagram>
</mxfile>
